<?xml version="1.0" encoding="UTF-8"?>
<svg width="32px" height="32px" viewBox="0 0 32 32" version="1.1" xmlns="http://www.w3.org/2000/svg" xmlns:xlink="http://www.w3.org/1999/xlink">
    <title>图标/多色图标/文件夹</title>
    <defs>
        <linearGradient x1="90.771006%" y1="47.0234337%" x2="0%" y2="46.4444444%" id="linearGradient-1">
            <stop stop-color="#D6EAFF" offset="0.0520719515%"></stop>
            <stop stop-color="#A9C6FF" offset="100%"></stop>
        </linearGradient>
        <linearGradient x1="50%" y1="8.29257214%" x2="100%" y2="87.8995657%" id="linearGradient-2">
            <stop stop-color="#71B6FF" offset="0%"></stop>
            <stop stop-color="#71B6FF" offset="0%"></stop>
            <stop stop-color="#2666E4" offset="100%"></stop>
        </linearGradient>
    </defs>
    <g id="页面-1" stroke="none" stroke-width="1" fill="none" fill-rule="evenodd">
        <g id="南宁非现场监督小程序-待处理工作表" transform="translate(-47.000000, -261.000000)">
            <g id="编组" transform="translate(20.000000, 237.000000)">
                <g id="编组" transform="translate(27.000000, 20.000000)">
                    <g id="图标/多色图标/文件夹" transform="translate(0.000000, 4.000000)">
                        <path d="M13.95625,5.30416667 L23.8416667,5.30416667 C25.0095188,5.30416667 25.95625,6.25089787 25.95625,7.41875 L25.95625,8.50416667 L25.95625,8.50416667 L13.95625,8.50416667 L13.95625,5.30416667 Z" id="矩形" fill="url(#linearGradient-1)"></path>
                        <path d="M6.125,3.1875 L11.4603799,3.1875 C13.0467183,3.1875 14.4831613,4.12494188 15.1218509,5.57702487 L15.856124,7.24642007 C16.1967584,8.02086433 16.9628614,8.52083333 17.8089085,8.52083333 L25.9083333,8.52083333 C28.1174723,8.52083333 29.9083333,10.3116943 29.9083333,12.5208333 L29.9083333,24.5625 C29.9083333,26.771639 28.1174723,28.5625 25.9083333,28.5625 L6.125,28.5625 C3.915861,28.5625 2.125,26.771639 2.125,24.5625 L2.125,7.1875 C2.125,4.978361 3.915861,3.1875 6.125,3.1875 Z" id="矩形" fill="url(#linearGradient-2)"></path>
                        <path d="M21.8887252,19.8623741 C21.8887252,20.4463002 21.4153596,20.9196658 20.8314336,20.9196658 L6.69904119,20.9196658 C6.11511513,20.9196658 5.64174952,20.4463002 5.64174952,19.8623741 C5.64174952,19.278448 6.11511513,18.8050824 6.69904119,18.8050824 L20.8314336,18.8050824 C21.4153596,18.8050824 21.8887252,19.278448 21.8887252,19.8623741 Z M17.323929,13.5186241 C17.323929,14.1025502 16.8505634,14.5759158 16.2666374,14.5759158 L6.70116116,14.5759158 C6.1172351,14.5759158 5.64386949,14.1025502 5.64386949,13.5186241 C5.64386949,12.934698 6.1172351,12.4613324 6.70116116,12.4613324 L16.2666374,12.4613324 C16.8505634,12.4613324 17.323929,12.934698 17.323929,13.5186241 Z" id="形状结合" fill="#D5E7FF" fill-rule="nonzero"></path>
                    </g>
                </g>
            </g>
        </g>
    </g>
</svg>