<?xml version="1.0" encoding="UTF-8"?>
<svg width="510px" height="302px" viewBox="0 0 510 302" version="1.1" xmlns="http://www.w3.org/2000/svg" xmlns:xlink="http://www.w3.org/1999/xlink">
    <title>暂未登录</title>
    <defs>
        <radialGradient cx="50%" cy="0%" fx="50%" fy="0%" r="84.79713%" gradientTransform="translate(0.500000,0.000000),scale(0.693517,1.000000),scale(1.000000,0.820253),translate(-0.500000,-0.000000)" id="radialGradient-1">
            <stop stop-color="#D7E9FF" stop-opacity="0.492675781" offset="0%"></stop>
            <stop stop-color="#6EAEFF" stop-opacity="0" offset="100%"></stop>
        </radialGradient>
        <linearGradient x1="28.3887126%" y1="9.3412143%" x2="28.3887126%" y2="100%" id="linearGradient-2">
            <stop stop-color="#0084FF" stop-opacity="0.173624959" offset="0%"></stop>
            <stop stop-color="#00A7FF" stop-opacity="0" offset="100%"></stop>
        </linearGradient>
        <linearGradient x1="50%" y1="0%" x2="50%" y2="100%" id="linearGradient-3">
            <stop stop-color="#AAC6E5" offset="0%"></stop>
            <stop stop-color="#AABDE2" offset="100%"></stop>
        </linearGradient>
        <linearGradient x1="46.5016016%" y1="0%" x2="46.5016016%" y2="23.6770795%" id="linearGradient-4">
            <stop stop-color="#F2F8FF" offset="0%"></stop>
            <stop stop-color="#D1E1FF" offset="100%"></stop>
        </linearGradient>
        <linearGradient x1="46.5016016%" y1="0%" x2="46.5016016%" y2="48.3781144%" id="linearGradient-5">
            <stop stop-color="#DCEDFF" offset="0%"></stop>
            <stop stop-color="#9BC2FF" offset="100%"></stop>
        </linearGradient>
        <linearGradient x1="46.5016016%" y1="0%" x2="46.5016016%" y2="23.6770795%" id="linearGradient-6">
            <stop stop-color="#F2F8FF" offset="0%"></stop>
            <stop stop-color="#F2F8FF" offset="100%"></stop>
        </linearGradient>
        <linearGradient x1="46.5016016%" y1="0%" x2="46.5016016%" y2="23.6770795%" id="linearGradient-7">
            <stop stop-color="#F2F8FF" offset="0%"></stop>
            <stop stop-color="#F2F8FF" offset="100%"></stop>
        </linearGradient>
        <linearGradient x1="50%" y1="0%" x2="50%" y2="100%" id="linearGradient-8">
            <stop stop-color="#D4E9FF" offset="0%"></stop>
            <stop stop-color="#AECAFF" offset="100%"></stop>
        </linearGradient>
        <linearGradient x1="50%" y1="-5.55111512e-15%" x2="50%" y2="97.0815805%" id="linearGradient-9">
            <stop stop-color="#71B6FF" offset="0%"></stop>
            <stop stop-color="#8CB4FF" offset="100%"></stop>
        </linearGradient>
        <linearGradient x1="76.0968494%" y1="92.5441154%" x2="22.6174808%" y2="8.01406608%" id="linearGradient-10">
            <stop stop-color="#B0CBFF" offset="0%"></stop>
            <stop stop-color="#D5E9FF" offset="100%"></stop>
        </linearGradient>
    </defs>
    <g id="页面-1" stroke="none" stroke-width="1" fill="none" fill-rule="evenodd">
        <g id="南宁非现场监督小程序-待处理工作表-未登录" transform="translate(-120.000000, -566.000000)">
            <g id="编组" transform="translate(20.000000, 237.000000)">
                <g id="编组-3" transform="translate(100.000000, 329.000000)">
                    <ellipse id="椭圆形" fill="url(#radialGradient-1)" fill-rule="nonzero" cx="255" cy="256.5" rx="254.5" ry="176.5"></ellipse>
                    <polygon id="路径" fill="url(#linearGradient-2)" points="180.137291 151 326.144009 154.792554 414.142923 203.310366 222.23029 203.310366"></polygon>
                    <g id="图标/多色图标/查找文件" transform="translate(175.000000, 0.000000)">
                        <path d="M15.2780017,39.8719065 L144.95841,39.8719065 C149.466857,39.8719065 153.121675,43.5267249 153.121675,48.0351718 C153.121675,48.189081 153.117323,48.3429595 153.108622,48.4966226 L147.374839,149.767573 C147.13012,154.089832 143.553807,157.469388 139.224626,157.469388 L20.7921003,157.469388 C16.4561021,157.469388 12.8766503,154.079531 12.6409089,149.749946 L7.12681037,48.4789958 C6.88169318,43.9772171 10.3323991,40.1290977 14.8341778,39.8839805 C14.9819823,39.8759327 15.1299783,39.8719065 15.2780017,39.8719065 Z" id="矩形" fill="url(#linearGradient-3)"></path>
                        <rect id="矩形" fill="url(#linearGradient-4)" x="37.3333333" y="1.7414966" width="86.6666667" height="141.333333" rx="8.16326523"></rect>
                        <path d="M28.1632652,10.5034014 L131.836735,10.5034014 C136.345182,10.5034014 140,14.1582197 140,18.6666666 L140,126.340136 C140,130.848583 136.345182,134.503401 131.836735,134.503401 L28.1632652,134.503401 C23.6548183,134.503401 20,130.848583 20,126.340136 L20,18.6666666 C20,14.1582197 23.6548183,10.5034014 28.1632652,10.5034014 Z" id="矩形" fill="url(#linearGradient-5)"></path>
                        <path d="M47.3333333,27.170068 L112.666667,27.170068 C115.980375,27.170068 118.666667,29.8563595 118.666667,33.170068 C118.666667,36.4837765 115.980375,39.170068 112.666667,39.170068 L47.3333333,39.170068 C44.0196248,39.170068 41.3333333,36.4837765 41.3333333,33.170068 C41.3333333,29.8563595 44.0196248,27.170068 47.3333333,27.170068 Z" id="矩形" fill="url(#linearGradient-6)"></path>
                        <path d="M47.3333333,49.8367347 L71.3333333,49.8367347 C74.6470418,49.8367347 77.3333333,52.5230262 77.3333333,55.8367347 C77.3333333,59.1504432 74.6470418,61.8367347 71.3333333,61.8367347 L47.3333333,61.8367347 C44.0196248,61.8367347 41.3333333,59.1504432 41.3333333,55.8367347 C41.3333333,52.5230262 44.0196248,49.8367347 47.3333333,49.8367347 Z" id="矩形" fill="url(#linearGradient-7)"></path>
                        <path d="M8.79031678,69.3061224 L92.8219476,69.3061224 C95.0595899,69.3061224 97.1991353,68.3875911 98.7403103,66.7653017 L109.422955,55.5204126 C110.96413,53.8981231 113.103675,52.9795918 115.341318,52.9795918 L151.310602,52.9795918 C155.819049,52.9795918 159.473868,56.6344102 159.473868,61.1428571 C159.473868,61.312718 159.468566,61.4825375 159.45797,61.6520676 L153.947766,149.815333 C153.678871,154.117659 150.111119,157.469388 145.800398,157.469388 L14.1115564,157.469388 C9.83705903,157.469388 6.28635945,154.171975 5.97059512,149.909157 L0.649355517,78.0724219 C0.316308942,73.5762932 3.69115386,69.6614731 8.18728261,69.3284265 C8.38795041,69.3135622 8.5890992,69.3061224 8.79031678,69.3061224 Z" id="矩形" fill="url(#linearGradient-8)"></path>
                        <path d="M92.4942694,29.3333333 C117.067776,29.3333333 136.988539,49.2156819 136.988539,73.7418018 C136.988539,83.3083167 133.957749,92.1683178 128.802231,99.4174914 L146.045498,116.628192 C148.646886,119.224564 148.650953,123.43818 146.054581,126.039568 L146.045498,126.048651 L146.045498,126.048651 C143.437612,128.651508 139.214724,128.651508 136.606838,126.048651 L119.534984,109.011216 C112.040495,114.743669 102.665978,118.15027 92.4942694,118.15027 C67.920763,118.15027 48,98.2679217 48,73.7418018 C48,49.2156819 67.920763,29.3333333 92.4942694,29.3333333 Z M92.4522813,40.7084879 C74.1960433,40.7084879 59.3964383,55.479554 59.3964383,73.7005874 C59.3964383,91.9216208 74.1960433,106.692687 92.4522813,106.692687 C110.708519,106.692687 125.508124,91.9216208 125.508124,73.7005874 C125.508124,55.479554 110.708519,40.7084879 92.4522813,40.7084879 Z" id="形状结合" fill="url(#linearGradient-9)"></path>
                        <circle id="椭圆形" fill="url(#linearGradient-10)" opacity="0.695457229" cx="92.0112767" cy="73.3361374" r="33.3101172"></circle>
                        <path d="M96.4517544,46.6666667 C108.720712,46.6666667 118.666667,56.6126217 118.666667,68.8815789 C118.666667,71.340215 116.673548,73.3333333 114.214912,73.3333333 C111.756276,73.3333333 109.763158,71.340215 109.763158,68.8815789 C109.763158,61.5298938 103.80344,55.5701754 96.4517544,55.5701754 C93.9931183,55.5701754 92,53.5770571 92,51.1184211 C92,48.659785 93.9931183,46.6666667 96.4517544,46.6666667 Z" id="路径" fill="#F2F7FF" fill-rule="nonzero"></path>
                    </g>
                </g>
            </g>
        </g>
    </g>
</svg>