<?xml version="1.0" encoding="UTF-8"?>
<svg width="233px" height="303px" viewBox="0 0 233 303" version="1.1" xmlns="http://www.w3.org/2000/svg" xmlns:xlink="http://www.w3.org/1999/xlink">
    <title>编组 5</title>
    <defs>
        <linearGradient x1="50%" y1="28.9387388%" x2="50%" y2="100%" id="linearGradient-1">
            <stop stop-color="#FFD4D4" offset="0%"></stop>
            <stop stop-color="#F68E8E" offset="100%"></stop>
        </linearGradient>
        <linearGradient x1="50%" y1="1.23259516e-30%" x2="50%" y2="73.3555141%" id="linearGradient-2">
            <stop stop-color="#73A9FF" offset="0%"></stop>
            <stop stop-color="#2571FF" offset="18.659609%"></stop>
            <stop stop-color="#3985FF" offset="54.0779694%"></stop>
            <stop stop-color="#60ABFF" offset="100%"></stop>
        </linearGradient>
        <linearGradient x1="8.01636779%" y1="10.7613647%" x2="50%" y2="77.9340518%" id="linearGradient-3">
            <stop stop-color="#83B5FF" offset="0%"></stop>
            <stop stop-color="#4383FF" offset="100%"></stop>
        </linearGradient>
        <linearGradient x1="50%" y1="1.23259516e-30%" x2="50%" y2="100%" id="linearGradient-4">
            <stop stop-color="#73A9FF" offset="0%"></stop>
            <stop stop-color="#2D64FF" offset="100%"></stop>
        </linearGradient>
        <linearGradient x1="50%" y1="0%" x2="50%" y2="100%" id="linearGradient-5">
            <stop stop-color="#FFBC92" offset="0%"></stop>
            <stop stop-color="#FF3D75" offset="100%"></stop>
        </linearGradient>
        <linearGradient x1="50%" y1="1.23259516e-30%" x2="50%" y2="100%" id="linearGradient-6">
            <stop stop-color="#E9EFFF" offset="0%"></stop>
            <stop stop-color="#B3C7FF" offset="100%"></stop>
        </linearGradient>
        <linearGradient x1="50%" y1="1.23259516e-30%" x2="50%" y2="100%" id="linearGradient-7">
            <stop stop-color="#FF7070" offset="0%"></stop>
            <stop stop-color="#FF7373" offset="100%"></stop>
        </linearGradient>
        <linearGradient x1="100%" y1="50%" x2="0%" y2="50%" id="linearGradient-8">
            <stop stop-color="#FF5F3A" offset="0%"></stop>
            <stop stop-color="#FFDDC6" offset="100%"></stop>
        </linearGradient>
        <linearGradient x1="50%" y1="1.23259516e-30%" x2="50%" y2="98.2476508%" id="linearGradient-9">
            <stop stop-color="#FFE08A" offset="0%"></stop>
            <stop stop-color="#FFBA58" offset="100%"></stop>
        </linearGradient>
        <linearGradient x1="50%" y1="1.23259516e-30%" x2="50%" y2="98.2476508%" id="linearGradient-10">
            <stop stop-color="#FFBB78" offset="0%"></stop>
            <stop stop-color="#FBFCFF" offset="100%"></stop>
        </linearGradient>
        <linearGradient x1="55.8104105%" y1="19.1426009%" x2="45.0232282%" y2="53.225%" id="linearGradient-11">
            <stop stop-color="#D2E3FF" offset="0%"></stop>
            <stop stop-color="#2C7BFF" offset="43.8958959%"></stop>
            <stop stop-color="#4D92FF" offset="56.305828%"></stop>
            <stop stop-color="#6DACFF" offset="100%"></stop>
        </linearGradient>
        <linearGradient x1="62.6585647%" y1="24.7273847%" x2="41.2041525%" y2="54.3207468%" id="linearGradient-12">
            <stop stop-color="#A4C7FF" offset="0%"></stop>
            <stop stop-color="#2F78FF" offset="100%"></stop>
        </linearGradient>
        <linearGradient x1="50%" y1="1.23259516e-30%" x2="50%" y2="96.3129633%" id="linearGradient-13">
            <stop stop-color="#BCD0FF" offset="0%"></stop>
            <stop stop-color="#CADEFF" offset="100%"></stop>
        </linearGradient>
        <linearGradient x1="50%" y1="1.23259516e-30%" x2="50%" y2="100%" id="linearGradient-14">
            <stop stop-color="#FFFFFF" offset="0%"></stop>
            <stop stop-color="#DDE6FF" offset="100%"></stop>
        </linearGradient>
        <path d="M127.038332,168.993168 L162.139847,168.993168 C163.522866,168.993168 164.644025,170.114327 164.644025,171.497346 L164.644025,212.674187 C164.644025,214.057207 163.522866,215.178365 162.139847,215.178365 L127.038332,215.178365 C125.655312,215.178365 124.534153,214.057207 124.534153,212.674187 L124.534153,171.497346 C124.534153,170.114327 125.655312,168.993168 127.038332,168.993168 Z" id="path-15"></path>
        <filter x="-3.7%" y="-3.2%" width="107.5%" height="106.5%" filterUnits="objectBoundingBox" id="filter-16">
            <feOffset dx="0" dy="0" in="SourceAlpha" result="shadowOffsetOuter1"></feOffset>
            <feGaussianBlur stdDeviation="0.5" in="shadowOffsetOuter1" result="shadowBlurOuter1"></feGaussianBlur>
            <feColorMatrix values="0 0 0 0 0   0 0 0 0 0.0745462646   0 0 0 0 0.258878846  0 0 0 0.208649749 0" type="matrix" in="shadowBlurOuter1"></feColorMatrix>
        </filter>
        <linearGradient x1="50%" y1="1.23259516e-30%" x2="50%" y2="100%" id="linearGradient-17">
            <stop stop-color="#A8C9FF" offset="0%"></stop>
            <stop stop-color="#8FADFF" offset="100%"></stop>
        </linearGradient>
        <linearGradient x1="50%" y1="1.23259516e-30%" x2="50%" y2="100%" id="linearGradient-18">
            <stop stop-color="#73A9FF" offset="0%"></stop>
            <stop stop-color="#2D64FF" offset="100%"></stop>
        </linearGradient>
    </defs>
    <g id="页面-1" stroke="none" stroke-width="1" fill="none" fill-rule="evenodd">
        <g id="南宁非现场监督小程序-登录页" transform="translate(-432.000000, -138.000000)">
            <g id="编组-5" transform="translate(432.000000, 138.000000)">
                <g id="编组-6" transform="translate(0.000000, -0.000000)">
                    <path d="M126.170145,1.14264169e-15 C128.521279,-1.77432928e-16 130.427249,1.90597022 130.427249,4.25710365 C130.427249,4.56426436 130.394006,4.87032659 130.328224,5.16996309 C149.405017,10.8385296 163.848153,27.5984142 166.116549,47.8451627 L172.376102,47.8454325 C176.248557,47.8454325 179.387802,50.9846776 179.387802,54.8571327 L179.387802,69.5533113 C179.387802,73.4257664 176.248557,76.5650114 172.376102,76.5650114 L166.403297,76.5653275 C166.359462,78.0086106 166.25484,79.4366101 166.091902,80.8468548 C166.750737,83.9381318 167.587682,87.2436568 168.41498,90.5929759 L168.696039,91.7349053 L168.974714,92.8787286 L169.196352,93.8005048 C171.624764,103.971677 173.41959,114.048152 169.398236,119.314774 L184.484676,121.508125 C204.145837,124.367252 219.21493,140.446065 220.794683,160.25112 L232.160225,302.738753 L0,302.738753 L11.3655492,160.251036 C12.9452986,140.446019 28.0143379,124.367224 47.6754531,121.508055 L62.7576599,119.315829 C58.5444641,113.799697 60.7135304,103.005542 63.3080498,92.3529073 L63.5307807,91.4425744 C63.7915212,90.3812144 64.0548059,89.3227994 64.3147223,88.2727084 L64.536545,87.3747945 C65.0883501,85.1357333 65.6169323,82.9419519 66.0641165,80.8463782 C65.9002505,79.4366101 65.795628,78.0086106 65.7517932,76.5653275 L59.3527773,76.5650114 C55.4803223,76.5650114 52.3410772,73.4257664 52.3410772,69.5533113 L52.3410772,54.8571327 C52.3410772,50.9846776 55.4803223,47.8454325 59.3527773,47.8454325 L66.0863767,47.8451022 C66.6186841,43.0605418 67.8448818,38.3043669 69.793273,33.7243561 C75.7050077,19.8278618 87.397542,9.59310072 101.348165,5.31445511 L101.360542,5.36320616 C100.749658,3.0928208 102.09495,0.757090857 104.365336,0.146207309 C104.726026,0.0491578508 105.09792,4.25504303e-15 105.471438,2.41007198e-15 L126.170145,1.14264169e-15 Z" id="形状结合" fill="#FFFFFF" fill-rule="nonzero"></path>
                    <path d="M116.077545,126.053029 C127.516631,126.053029 153.277985,121.418219 160.774363,113.924746 C168.27074,106.431272 157.502141,83.7597435 157.502141,72.3250879 C157.502141,49.4557767 138.955718,30.9165369 116.077545,30.9165369 C93.1993724,30.9165369 74.652949,49.4557767 74.652949,72.3250879 C74.652949,83.7597435 63.8843499,106.431272 71.3807274,113.924746 C78.8771048,121.418219 104.638459,126.053029 116.077545,126.053029 Z" id="椭圆形" fill="url(#linearGradient-1)" fill-rule="nonzero"></path>
                    <path d="M141.773427,104.35037 L141.462345,108.772022 C141.224473,112.153075 141.675445,115.547228 142.78794,118.748861 L144.748215,124.390307 C145.179502,125.6315 146.268635,126.52732 147.569721,126.711015 L187.394575,132.333726 C199.005348,133.973004 207.923888,143.449663 208.856246,155.138461 L219.585117,289.644268 L219.585117,289.644268 L12.5751082,289.644268 L23.3039831,155.138413 C24.2363397,143.449637 33.1548489,133.972989 44.7655971,132.333687 L84.4434624,126.731635 C85.8199663,126.537289 86.9516121,125.54798 87.3281413,124.209788 L89.3506673,117.02169 C89.9344679,114.946851 90.2479507,112.805321 90.2833421,110.650205 L90.3867984,104.35037 L90.3867984,104.35037 L141.773427,104.35037 Z" id="路径" fill="url(#linearGradient-2)" fill-rule="nonzero"></path>
                    <path d="M141.773427,104.35037 L141.462345,108.772022 C141.224473,112.153075 141.675445,115.547228 142.78794,118.748861 L144.810727,124.570209 C145.208646,125.715375 144.986684,126.984853 144.223798,127.927058 L117.593763,160.816553 L117.593763,160.816553 L87.9968469,127.846937 C87.1946618,126.953339 86.9056473,125.71134 87.2308997,124.555386 L89.3506673,117.02169 C89.9344679,114.946851 90.2479507,112.805321 90.2833421,110.650205 L90.3867984,104.35037 L90.3867984,104.35037 L141.773427,104.35037 Z" id="路径" fill="url(#linearGradient-3)"></path>
                    <ellipse id="椭圆形" fill="url(#linearGradient-4)" fill-rule="nonzero" cx="116.077545" cy="72.3250879" rx="41.4245961" ry="41.408551"></ellipse>
                    <path d="M75.0116268,61.0809876 C73.7829396,53.2847482 74.7779149,45.1284104 78.1739801,37.6059339 C85.2080351,22.0251048 101.096963,12.3662045 118.172465,13.2908014 C139.537508,14.4790899 156.49442,31.7139768 157.327361,53.0875655 C157.424247,55.6711087 157.279428,58.2234934 156.909477,60.7184722 L75.0116268,61.0809876 Z" id="形状结合" fill="url(#linearGradient-5)" fill-rule="nonzero"></path>
                    <path d="M85.0309221,67.9209058 C83.2854479,80.0772282 88.7960314,92.1338759 99.131923,98.772594 C109.467815,105.411312 122.728356,105.411312 133.064248,98.772594 C143.400139,92.1338759 148.910723,80.0772282 147.165249,67.9209058 L85.0309221,67.9209058 Z" id="路径" fill="url(#linearGradient-6)" fill-rule="nonzero"></path>
                    <rect id="矩形" fill="url(#linearGradient-7)" fill-rule="nonzero" x="62.4364339" y="55.6900367" width="106.557803" height="13.1458162" rx="6.5729081"></rect>
                    <path d="M115.841144,6.5525987 L121.74742,7.86561297 C123.695042,8.29858546 125.080687,10.0260988 125.080687,12.0212667 L125.080687,22.9131061 C125.080687,24.908274 123.695042,26.6357873 121.74742,27.0687598 L115.841144,28.3817741 C111.74812,29.2916875 107.692438,26.7112662 106.782524,22.6182419 C106.66227,22.0773091 106.601601,21.5248363 106.601601,20.970698 L106.601601,13.9636749 C106.601601,9.77072952 110.000655,6.37167573 114.1936,6.37167573 C114.747739,6.37167573 115.300212,6.43234484 115.841144,6.5525987 Z" id="矩形" fill="url(#linearGradient-8)" fill-rule="nonzero" transform="translate(115.841144, 17.467186) rotate(90.000000) translate(-115.841144, -17.467186) "></path>
                    <path d="M115.584391,49.6746894 C120.263824,49.6746894 124.057254,42.4172602 124.057254,37.7396398 C124.057254,33.0620194 120.263824,32.7355276 115.584391,32.7355276 C110.904958,32.7355276 107.111528,33.0620194 107.111528,37.7396398 C107.111528,42.4172602 110.904958,49.6746894 115.584391,49.6746894 Z" id="椭圆形" fill="url(#linearGradient-9)" fill-rule="nonzero"></path>
                    <path d="M115.584391,47.6214577 C120.263824,47.6214577 124.057254,40.3640284 124.057254,35.6864081 C124.057254,31.0087877 120.263824,30.6822958 115.584391,30.6822958 C110.904958,30.6822958 107.111528,31.0087877 107.111528,35.6864081 C107.111528,40.3640284 110.904958,47.6214577 115.584391,47.6214577 Z" id="椭圆形" fill="url(#linearGradient-10)" fill-rule="nonzero"></path>
                    <path d="M115.931373,239.734108 L109.165066,239.734108 L109.165066,167.137888 C109.165066,166.864912 109.053658,166.603761 108.856615,166.414844 L92.030807,150.283044 L92.030807,150.283044 L79.1861383,139.990409 L72.7448017,128.380157 L82.1747175,123.15687 L84.9075125,113.047613 L88.7517149,113.047613 L103.803543,130.320384 L103.838791,130.467744 L103.911327,130.346209 L106.185363,143.122703 L115.931373,152.963175 L115.931373,239.734108 Z" id="路径" fill="url(#linearGradient-11)" fill-rule="nonzero"></path>
                    <polygon id="路径-7" fill="url(#linearGradient-12)" fill-rule="nonzero" transform="translate(137.472661, 143.122703) scale(-1, 1) translate(-137.472661, -143.122703) " points="131.798355 113.047613 146.850183 130.320384 149.859877 144.085171 158.978013 152.963175 158.978013 173.197793 135.077447 150.283044 122.232779 139.990409 115.967309 128.380157 125.221358 123.15687 127.954153 113.047613"></polygon>
                    <path d="M61.6418018,180.321612 L179.467239,180.321612 L179.467239,180.321612 L179.467239,202.978502 L61.6418018,202.978502 C60.2587821,202.978502 59.1376232,201.857343 59.1376232,200.474323 L59.1376232,182.825791 C59.1376232,181.442771 60.2587821,180.321612 61.6418018,180.321612 Z" id="矩形" fill="url(#linearGradient-13)" fill-rule="nonzero"></path>
                    <g id="矩形" fill-rule="nonzero">
                        <use fill="black" fill-opacity="1" filter="url(#filter-16)" xlink:href="#path-15"></use>
                        <use fill="url(#linearGradient-14)" xlink:href="#path-15"></use>
                    </g>
                    <rect id="矩形" fill="url(#linearGradient-17)" fill-rule="nonzero" x="171.619655" y="176.835937" width="7.84758364" height="30.499659" rx="2.50417862"></rect>
                    <polygon id="矩形" fill="url(#linearGradient-18)" fill-rule="nonzero" points="134.997598 179.450194 154.180581 179.450194 154.180581 204.72134 134.997598 204.72134"></polygon>
                </g>
            </g>
        </g>
    </g>
</svg>